<svg width="1280" height="1178" viewBox="0 0 1280 1178" fill="none" xmlns="http://www.w3.org/2000/svg">
<path fill-rule="evenodd" clip-rule="evenodd" d="M400.854 69.7368H1070.46V162.719H1175.23V241.754V269.649H1266.33L1280 929.822H1175.23V953.068L1193.45 962.366V1018.16C1190.85 1026.12 1186.58 1026.89 1182.65 1027.59C1179.69 1028.12 1176.94 1028.62 1175.23 1032.1C1171.25 1040.22 1175.23 1055.35 1175.23 1055.35H1070.46V1148.33H400.854V69.7368ZM651.388 994.91H897.367L911.032 892.63H1006.69V297.543L901.922 306.842L897.367 204.561H651.388V994.91Z" fill="url(#paint0_linear_29_2)"/>
<path d="M387.188 655.525L464.626 762.454L387.188 590.437C387.188 590.437 330.42 664.655 277.865 674.121C222.467 684.099 180.987 668.228 141.21 627.63C81.9928 567.192 68.3273 520.7 63.7721 446.315C60.0782 385.994 95.6566 297.543 95.6566 297.543L59.217 251.052C59.217 251.052 25.6642 371.066 31.886 446.315C39.1359 533.998 50.6246 595.731 113.879 655.525C164.778 703.64 209.416 736.808 277.865 725.261C327.537 716.882 387.188 655.525 387.188 655.525Z" fill="url(#paint1_linear_29_2)" fill-opacity="0.99"/>
<path d="M610.391 590.437L537.509 762.454L610.391 655.524C610.391 655.524 679.545 715.125 733.381 720.612C819.898 729.43 877.912 679.184 924.697 604.384C960.932 546.453 959.159 501.067 961.139 432.367C962.987 368.204 938.363 255.701 938.363 255.701L911.032 297.543C911.032 297.543 929.253 367.28 924.697 432.367C920.142 497.455 929.253 529.998 888.256 590.437C847.755 650.146 806.263 674.121 733.381 674.121C675.655 674.121 610.391 590.437 610.391 590.437Z" fill="url(#paint2_linear_29_2)" fill-opacity="0.99"/>
<path d="M337.084 529.999L136.657 371.929C136.657 371.929 131.286 576.165 218.65 585.788C269.296 591.367 337.084 529.999 337.084 529.999Z" fill="url(#paint3_linear_29_2)" fill-opacity="0.99"/>
<path d="M797.153 581.139C706.05 604.385 669.608 525.35 669.608 525.35L860.925 376.578C860.925 376.578 888.256 557.893 797.153 581.139Z" fill="url(#paint4_linear_29_2)" fill-opacity="0.99"/>
<path d="M245.977 1129.73C282.416 1018.16 227.756 734.56 227.756 734.56L118.432 669.472C118.432 669.472 136.653 810.858 136.653 901.928C136.653 980.963 136.649 1073.94 109.322 1120.44C93.7911 1146.86 127.544 1168.19 163.984 1176.23C200.423 1184.26 234.672 1164.35 245.977 1129.73Z" fill="url(#paint5_linear_29_2)" fill-opacity="0.99"/>
<path d="M833.596 1176.23C792.598 1171.58 757.189 1155.69 751.603 1115.79C742.492 1050.7 751.603 994.91 751.603 915.875C751.603 836.704 774.377 725.261 774.377 725.261L829.039 711.314L883.701 669.472C883.701 669.472 854.961 813.354 856.371 906.577C857.619 988.992 874.591 1022.8 883.702 1115.79C886.717 1146.55 863.704 1179.64 833.596 1176.23Z" fill="url(#paint6_linear_29_2)" fill-opacity="0.99"/>
<path d="M551.174 339.385C518.964 372.259 501.068 483.508 501.068 483.508C501.068 483.508 493.486 377.33 441.85 339.385C327.971 255.701 359.857 302.192 182.206 209.21C75.1204 153.161 0 0 0 0C0 0 13.1311 158.985 68.3272 246.403C106.489 306.841 151.897 345.449 209.537 395.174C270.975 448.176 355.302 497.455 355.302 497.455C355.302 497.455 469.181 599.735 501.068 785.7C505.623 636.928 646.833 492.806 646.833 492.806C646.833 492.806 733.381 446.315 801.708 390.525C859.612 343.247 896.677 310.551 933.808 246.403C984.944 158.059 988.47 0 988.47 0C988.47 0 929.253 153.421 819.929 209.21C710.605 264.999 605.836 283.596 551.174 339.385Z" fill="url(#paint7_linear_29_2)" fill-opacity="0.99"/>
<defs>
<linearGradient id="paint0_linear_29_2" x1="840.427" y1="69.7368" x2="840.427" y2="1148.33" gradientUnits="userSpaceOnUse">
<stop offset="0.419792" stop-color="#B7B7B7" stop-opacity="0.8413"/>
<stop offset="1" stop-color="#3A1A52"/>
</linearGradient>
<linearGradient id="paint1_linear_29_2" x1="247.871" y1="251.052" x2="247.871" y2="762.454" gradientUnits="userSpaceOnUse">
<stop offset="0.336458" stop-color="#3A1A52"/>
<stop offset="0.909375" stop-color="#D9D9D9"/>
<stop offset="1" stop-color="#D9D9D9"/>
</linearGradient>
<linearGradient id="paint2_linear_29_2" x1="749.373" y1="255.701" x2="749.373" y2="762.454" gradientUnits="userSpaceOnUse">
<stop offset="0.336458" stop-color="#3A1A52"/>
<stop offset="0.909375" stop-color="#D9D9D9"/>
<stop offset="1" stop-color="#D9D9D9"/>
</linearGradient>
<linearGradient id="paint3_linear_29_2" x1="236.838" y1="371.929" x2="236.838" y2="586.147" gradientUnits="userSpaceOnUse">
<stop offset="0.336458" stop-color="#3A1A52"/>
<stop offset="0.909375" stop-color="#D9D9D9"/>
<stop offset="1" stop-color="#D9D9D9"/>
</linearGradient>
<linearGradient id="paint4_linear_29_2" x1="767.188" y1="376.578" x2="767.188" y2="585.418" gradientUnits="userSpaceOnUse">
<stop offset="0.336458" stop-color="#3A1A52"/>
<stop offset="0.909375" stop-color="#D9D9D9"/>
<stop offset="1" stop-color="#D9D9D9"/>
</linearGradient>
<linearGradient id="paint5_linear_29_2" x1="181.974" y1="669.472" x2="181.974" y2="1178" gradientUnits="userSpaceOnUse">
<stop offset="0.336458" stop-color="#3A1A52"/>
<stop offset="0.909375" stop-color="#D9D9D9"/>
<stop offset="1" stop-color="#D9D9D9"/>
</linearGradient>
<linearGradient id="paint6_linear_29_2" x1="815.761" y1="669.472" x2="815.761" y2="1176.47" gradientUnits="userSpaceOnUse">
<stop offset="0.336458" stop-color="#3A1A52"/>
<stop offset="0.909375" stop-color="#D9D9D9"/>
<stop offset="1" stop-color="#D9D9D9"/>
</linearGradient>
<linearGradient id="paint7_linear_29_2" x1="494.235" y1="0" x2="494.235" y2="785.7" gradientUnits="userSpaceOnUse">
<stop offset="0.336458" stop-color="#3A1A52"/>
<stop offset="0.909375" stop-color="#D9D9D9"/>
<stop offset="1" stop-color="#D9D9D9"/>
</linearGradient>
</defs>
</svg>
