<svg width="384" height="367" viewBox="0 0 384 367" fill="none" xmlns="http://www.w3.org/2000/svg">
<g filter="url(#filter0_d_26_185)">
<g filter="url(#filter1_d_26_185)">
<path fill-rule="evenodd" clip-rule="evenodd" d="M80.4604 22.8398H196.491V38.6263H214.645V52.0448V56.7807H230.432L232.8 168.865H214.645V172.811L217.803 174.39V183.862C217.352 185.214 216.611 185.344 215.93 185.464C215.419 185.554 214.941 185.638 214.645 186.23C213.956 187.608 214.645 190.176 214.645 190.176H196.491V205.963H80.4604V22.8398ZM123.873 179.915H166.497L168.864 162.55H185.44V61.5168L167.286 63.0955L166.497 45.7304H123.873V179.915Z" fill="url(#paint0_linear_26_185)" shape-rendering="crispEdges"/>
<path d="M196.491 22.8398H196.991V22.3398H196.491V22.8398ZM80.4604 22.8398V22.3398H79.9604V22.8398H80.4604ZM196.491 38.6263H195.991V39.1263H196.491V38.6263ZM214.645 38.6263H215.145V38.1263H214.645V38.6263ZM214.645 56.7807H214.145V57.2807H214.645V56.7807ZM230.432 56.7807L230.932 56.7702L230.921 56.2807H230.432V56.7807ZM232.8 168.865V169.365H233.31L233.3 168.854L232.8 168.865ZM214.645 168.865V168.365H214.145V168.865H214.645ZM214.645 172.811H214.145V173.12L214.422 173.258L214.645 172.811ZM217.803 174.39H218.303V174.081L218.026 173.943L217.803 174.39ZM217.803 183.862L218.277 184.02L218.303 183.943V183.862H217.803ZM215.93 185.464L216.017 185.957L216.017 185.957L215.93 185.464ZM214.645 186.23L215.093 186.453L215.093 186.453L214.645 186.23ZM214.645 190.176V190.676H215.297L215.128 190.047L214.645 190.176ZM196.491 190.176V189.676H195.991V190.176H196.491ZM196.491 205.963V206.463H196.991V205.963H196.491ZM80.4604 205.963H79.9604V206.463H80.4604V205.963ZM166.497 179.915V180.415H166.933L166.992 179.983L166.497 179.915ZM123.873 179.915H123.373V180.415H123.873V179.915ZM168.864 162.55V162.05H168.428L168.369 162.483L168.864 162.55ZM185.44 162.55V163.05H185.94V162.55H185.44ZM185.44 61.5168H185.94V60.9715L185.397 61.0187L185.44 61.5168ZM167.286 63.0955L166.786 63.1182L166.81 63.6388L167.329 63.5936L167.286 63.0955ZM166.497 45.7304L166.996 45.7077L166.974 45.2304H166.497V45.7304ZM123.873 45.7304V45.2304H123.373V45.7304H123.873ZM196.491 22.3398H80.4604V23.3398H196.491V22.3398ZM196.991 38.6263V22.8398H195.991V38.6263H196.991ZM214.645 38.1263H196.491V39.1263H214.645V38.1263ZM215.145 52.0448V38.6263H214.145V52.0448H215.145ZM215.145 56.7807V52.0448H214.145V56.7807H215.145ZM230.432 56.2807H214.645V57.2807H230.432V56.2807ZM233.3 168.854L230.932 56.7702L229.932 56.7913L232.3 168.875L233.3 168.854ZM214.645 169.365H232.8V168.365H214.645V169.365ZM215.145 172.811V168.865H214.145V172.811H215.145ZM218.026 173.943L214.869 172.364L214.422 173.258L217.579 174.837L218.026 173.943ZM218.303 183.862V174.39H217.303V183.862H218.303ZM216.017 185.957C216.346 185.899 216.803 185.824 217.229 185.542C217.671 185.248 218.026 184.773 218.277 184.02L217.328 183.704C217.128 184.303 216.887 184.569 216.676 184.708C216.449 184.859 216.195 184.91 215.843 184.972L216.017 185.957ZM215.093 186.453C215.19 186.258 215.301 186.168 215.424 186.109C215.571 186.039 215.747 186.004 216.017 185.957L215.843 184.972C215.602 185.014 215.283 185.067 214.99 185.209C214.672 185.362 214.396 185.61 214.198 186.006L215.093 186.453ZM214.645 190.176C215.128 190.047 215.128 190.047 215.128 190.047C215.128 190.047 215.128 190.047 215.128 190.047C215.128 190.047 215.128 190.047 215.128 190.047C215.128 190.047 215.128 190.047 215.128 190.046C215.128 190.046 215.128 190.044 215.127 190.042C215.126 190.038 215.124 190.032 215.122 190.024C215.118 190.007 215.111 189.981 215.103 189.947C215.087 189.878 215.064 189.778 215.038 189.653C214.987 189.402 214.925 189.054 214.884 188.667C214.799 187.863 214.817 187.004 215.093 186.453L214.198 186.006C213.784 186.834 213.802 187.949 213.89 188.773C213.935 189.2 214.002 189.58 214.059 189.854C214.087 189.991 214.112 190.102 214.131 190.18C214.14 190.219 214.148 190.249 214.153 190.271C214.156 190.281 214.158 190.29 214.16 190.295C214.16 190.298 214.161 190.301 214.162 190.303C214.162 190.303 214.162 190.304 214.162 190.305C214.162 190.305 214.162 190.305 214.162 190.305C214.162 190.305 214.162 190.306 214.162 190.306C214.162 190.306 214.162 190.306 214.645 190.176ZM196.491 190.676H214.645V189.676H196.491V190.676ZM196.991 205.963V190.176H195.991V205.963H196.991ZM80.4604 206.463H196.491V205.463H80.4604V206.463ZM79.9604 22.8398V205.963H80.9604V22.8398H79.9604ZM166.497 179.415H123.873V180.415H166.497V179.415ZM168.369 162.483L166.001 179.848L166.992 179.983L169.36 162.618L168.369 162.483ZM185.44 162.05H168.864V163.05H185.44V162.05ZM184.94 61.5168V162.55H185.94V61.5168H184.94ZM167.329 63.5936L185.484 62.015L185.397 61.0187L167.243 62.5974L167.329 63.5936ZM165.997 45.7531L166.786 63.1182L167.785 63.0728L166.996 45.7077L165.997 45.7531ZM123.873 46.2304H166.497V45.2304H123.873V46.2304ZM124.373 179.915V45.7304H123.373V179.915H124.373Z" fill="black"/>
</g>
<g filter="url(#filter2_d_26_185)">
<path d="M78.0926 122.295L91.5111 140.449L78.0926 111.244C78.0926 111.244 68.2556 123.845 59.1489 125.452C49.5495 127.146 42.3618 124.451 35.4692 117.559C25.208 107.297 22.84 99.4043 22.0507 86.7751C21.4106 76.5339 27.5757 61.5168 27.5757 61.5168L21.2614 53.6235C21.2614 53.6235 15.4473 73.9994 16.5254 86.7751C17.7817 101.662 19.7725 112.143 30.7332 122.295C39.5531 130.464 47.2881 136.095 59.1489 134.134C67.7561 132.712 78.0926 122.295 78.0926 122.295Z" fill="white" fill-opacity="0.99"/>
<path d="M78.0926 122.295L91.5111 140.449L78.0926 111.244C78.0926 111.244 68.2556 123.845 59.1489 125.452C49.5495 127.146 42.3618 124.451 35.4692 117.559C25.208 107.297 22.84 99.4043 22.0507 86.7751C21.4106 76.5339 27.5757 61.5168 27.5757 61.5168L21.2614 53.6235C21.2614 53.6235 15.4473 73.9994 16.5254 86.7751C17.7817 101.662 19.7725 112.143 30.7332 122.295C39.5531 130.464 47.2881 136.095 59.1489 134.134C67.7561 132.712 78.0926 122.295 78.0926 122.295Z" fill="url(#paint1_linear_26_185)" fill-opacity="0.5"/>
<path d="M78.0926 122.295L91.5111 140.449L78.0926 111.244C78.0926 111.244 68.2556 123.845 59.1489 125.452C49.5495 127.146 42.3618 124.451 35.4692 117.559C25.208 107.297 22.84 99.4043 22.0507 86.7751C21.4106 76.5339 27.5757 61.5168 27.5757 61.5168L21.2614 53.6235C21.2614 53.6235 15.4473 73.9994 16.5254 86.7751C17.7817 101.662 19.7725 112.143 30.7332 122.295C39.5531 130.464 47.2881 136.095 59.1489 134.134C67.7561 132.712 78.0926 122.295 78.0926 122.295Z" stroke="#3A1A52"/>
<path d="M116.769 111.244L104.14 140.449L116.769 122.295C116.769 122.295 128.752 132.414 138.081 133.345C153.073 134.842 163.126 126.312 171.233 113.612C177.511 103.777 177.204 96.0711 177.547 84.4074C177.868 73.5138 173.601 54.4131 173.601 54.4131L168.865 61.517C168.865 61.517 172.022 73.3568 171.233 84.4074C170.443 95.4579 172.022 100.983 164.918 111.244C157.9 121.382 150.71 125.452 138.081 125.452C128.078 125.452 116.769 111.244 116.769 111.244Z" fill="white" fill-opacity="0.99"/>
<path d="M116.769 111.244L104.14 140.449L116.769 122.295C116.769 122.295 128.752 132.414 138.081 133.345C153.073 134.842 163.126 126.312 171.233 113.612C177.511 103.777 177.204 96.0711 177.547 84.4074C177.868 73.5138 173.601 54.4131 173.601 54.4131L168.865 61.517C168.865 61.517 172.022 73.3568 171.233 84.4074C170.443 95.4579 172.022 100.983 164.918 111.244C157.9 121.382 150.71 125.452 138.081 125.452C128.078 125.452 116.769 111.244 116.769 111.244Z" fill="url(#paint2_linear_26_185)" fill-opacity="0.5"/>
<path d="M116.769 111.244L104.14 140.449L116.769 122.295C116.769 122.295 128.752 132.414 138.081 133.345C153.073 134.842 163.126 126.312 171.233 113.612C177.511 103.777 177.204 96.0711 177.547 84.4074C177.868 73.5138 173.601 54.4131 173.601 54.4131L168.865 61.517C168.865 61.517 172.022 73.3568 171.233 84.4074C170.443 95.4579 172.022 100.983 164.918 111.244C157.9 121.382 150.71 125.452 138.081 125.452C128.078 125.452 116.769 111.244 116.769 111.244Z" stroke="#3A1A52"/>
<path d="M69.4103 100.983L34.6801 74.146C34.6801 74.146 33.7494 108.821 48.8879 110.455C57.6639 111.402 69.4103 100.983 69.4103 100.983Z" fill="white" fill-opacity="0.99"/>
<path d="M69.4103 100.983L34.6801 74.146C34.6801 74.146 33.7494 108.821 48.8879 110.455C57.6639 111.402 69.4103 100.983 69.4103 100.983Z" fill="url(#paint3_linear_26_185)" fill-opacity="0.7"/>
<path d="M69.4103 100.983L34.6801 74.146C34.6801 74.146 33.7494 108.821 48.8879 110.455C57.6639 111.402 69.4103 100.983 69.4103 100.983Z" stroke="#3A1A52"/>
<path d="M149.131 109.665C133.345 113.612 127.03 100.193 127.03 100.193L160.182 74.9351C160.182 74.9351 164.918 105.719 149.131 109.665Z" fill="white" fill-opacity="0.99"/>
<path d="M149.131 109.665C133.345 113.612 127.03 100.193 127.03 100.193L160.182 74.9351C160.182 74.9351 164.918 105.719 149.131 109.665Z" fill="url(#paint4_linear_26_185)" fill-opacity="0.7"/>
<path d="M149.131 109.665C133.345 113.612 127.03 100.193 127.03 100.193L160.182 74.9351C160.182 74.9351 164.918 105.719 149.131 109.665Z" stroke="#3A1A52"/>
<path d="M53.6232 202.806C59.9375 183.862 50.4659 135.713 50.4659 135.713L31.5222 124.663C31.5222 124.663 34.6795 148.667 34.6795 164.129C34.6795 177.547 34.6788 193.334 29.9435 201.227C27.2524 205.713 33.1012 209.334 39.4154 210.699C45.7296 212.063 51.6643 208.682 53.6232 202.806Z" fill="white" fill-opacity="0.99"/>
<path d="M53.6232 202.806C59.9375 183.862 50.4659 135.713 50.4659 135.713L31.5222 124.663C31.5222 124.663 34.6795 148.667 34.6795 164.129C34.6795 177.547 34.6788 193.334 29.9435 201.227C27.2524 205.713 33.1012 209.334 39.4154 210.699C45.7296 212.063 51.6643 208.682 53.6232 202.806Z" fill="url(#paint5_linear_26_185)" fill-opacity="0.5"/>
<path d="M53.6232 202.806C59.9375 183.862 50.4659 135.713 50.4659 135.713L31.5222 124.663C31.5222 124.663 34.6795 148.667 34.6795 164.129C34.6795 177.547 34.6788 193.334 29.9435 201.227C27.2524 205.713 33.1012 209.334 39.4154 210.699C45.7296 212.063 51.6643 208.682 53.6232 202.806Z" stroke="#3A1A52"/>
<path d="M155.446 210.699C148.342 209.909 142.207 207.213 141.239 200.438C139.66 189.387 141.239 179.915 141.239 166.497C141.239 153.055 145.185 134.134 145.185 134.134L154.657 131.767L164.129 124.663C164.129 124.663 159.149 149.091 159.393 164.918C159.609 178.91 162.55 184.651 164.129 200.438C164.651 205.661 160.664 211.278 155.446 210.699Z" fill="white" fill-opacity="0.99"/>
<path d="M155.446 210.699C148.342 209.909 142.207 207.213 141.239 200.438C139.66 189.387 141.239 179.915 141.239 166.497C141.239 153.055 145.185 134.134 145.185 134.134L154.657 131.767L164.129 124.663C164.129 124.663 159.149 149.091 159.393 164.918C159.609 178.91 162.55 184.651 164.129 200.438C164.651 205.661 160.664 211.278 155.446 210.699Z" fill="url(#paint6_linear_26_185)" fill-opacity="0.5"/>
<path d="M155.446 210.699C148.342 209.909 142.207 207.213 141.239 200.438C139.66 189.387 141.239 179.915 141.239 166.497C141.239 153.055 145.185 134.134 145.185 134.134L154.657 131.767L164.129 124.663C164.129 124.663 159.149 149.091 159.393 164.918C159.609 178.91 162.55 184.651 164.129 200.438C164.651 205.661 160.664 211.278 155.446 210.699Z" stroke="#3A1A52"/>
<g filter="url(#filter3_d_26_185)">
<path d="M106.508 68.6206C100.927 74.2019 97.8255 93.0896 97.8255 93.0896C97.8255 93.0896 96.5117 75.0628 87.5643 68.6206C67.8312 54.4128 73.3565 62.306 42.5729 46.5195C24.0169 37.0036 11 11 11 11C11 11 13.2754 37.9924 22.8398 52.8341C29.4524 63.0953 37.3209 69.6501 47.3088 78.0924C57.9549 87.091 72.5672 95.4575 72.5672 95.4575C72.5672 95.4575 92.3002 112.823 97.8255 144.396C98.6148 119.137 123.084 94.6682 123.084 94.6682C123.084 94.6682 138.081 86.775 149.921 77.3031C159.954 69.2763 166.377 63.7251 172.811 52.8341C181.672 37.8351 182.283 11 182.283 11C182.283 11 172.022 37.0477 153.078 46.5195C134.134 55.9914 115.98 59.1487 106.508 68.6206Z" fill="white" fill-opacity="0.99" shape-rendering="crispEdges"/>
<path d="M106.508 68.6206C100.927 74.2019 97.8255 93.0896 97.8255 93.0896C97.8255 93.0896 96.5117 75.0628 87.5643 68.6206C67.8312 54.4128 73.3565 62.306 42.5729 46.5195C24.0169 37.0036 11 11 11 11C11 11 13.2754 37.9924 22.8398 52.8341C29.4524 63.0953 37.3209 69.6501 47.3088 78.0924C57.9549 87.091 72.5672 95.4575 72.5672 95.4575C72.5672 95.4575 92.3002 112.823 97.8255 144.396C98.6148 119.137 123.084 94.6682 123.084 94.6682C123.084 94.6682 138.081 86.775 149.921 77.3031C159.954 69.2763 166.377 63.7251 172.811 52.8341C181.672 37.8351 182.283 11 182.283 11C182.283 11 172.022 37.0477 153.078 46.5195C134.134 55.9914 115.98 59.1487 106.508 68.6206Z" fill="url(#paint7_linear_26_185)" fill-opacity="0.5" shape-rendering="crispEdges"/>
<path d="M106.508 68.6206C100.927 74.2019 97.8255 93.0896 97.8255 93.0896C97.8255 93.0896 96.5117 75.0628 87.5643 68.6206C67.8312 54.4128 73.3565 62.306 42.5729 46.5195C24.0169 37.0036 11 11 11 11C11 11 13.2754 37.9924 22.8398 52.8341C29.4524 63.0953 37.3209 69.6501 47.3088 78.0924C57.9549 87.091 72.5672 95.4575 72.5672 95.4575C72.5672 95.4575 92.3002 112.823 97.8255 144.396C98.6148 119.137 123.084 94.6682 123.084 94.6682C123.084 94.6682 138.081 86.775 149.921 77.3031C159.954 69.2763 166.377 63.7251 172.811 52.8341C181.672 37.8351 182.283 11 182.283 11C182.283 11 172.022 37.0477 153.078 46.5195C134.134 55.9914 115.98 59.1487 106.508 68.6206Z" stroke="#3A1A52" shape-rendering="crispEdges"/>
</g>
</g>
</g>
<defs>
<filter id="filter0_d_26_185" x="0.501709" y="0.776367" width="322.809" height="300.724" filterUnits="userSpaceOnUse" color-interpolation-filters="sRGB">
<feFlood flood-opacity="0" result="BackgroundImageFix"/>
<feColorMatrix in="SourceAlpha" type="matrix" values="0 0 0 0 0 0 0 0 0 0 0 0 0 0 0 0 0 0 127 0" result="hardAlpha"/>
<feOffset dx="40" dy="40"/>
<feGaussianBlur stdDeviation="25"/>
<feComposite in2="hardAlpha" operator="out"/>
<feColorMatrix type="matrix" values="0 0 0 0 1 0 0 0 0 1 0 0 0 0 1 0 0 0 0.35 0"/>
<feBlend mode="normal" in2="BackgroundImageFix" result="effect1_dropShadow_26_185"/>
<feBlend mode="normal" in="SourceGraphic" in2="effect1_dropShadow_26_185" result="shape"/>
</filter>
<filter id="filter1_d_26_185" x="49.9604" y="2.33984" width="333.35" height="364.123" filterUnits="userSpaceOnUse" color-interpolation-filters="sRGB">
<feFlood flood-opacity="0" result="BackgroundImageFix"/>
<feColorMatrix in="SourceAlpha" type="matrix" values="0 0 0 0 0 0 0 0 0 0 0 0 0 0 0 0 0 0 127 0" result="hardAlpha"/>
<feOffset dx="60" dy="70"/>
<feGaussianBlur stdDeviation="45"/>
<feComposite in2="hardAlpha" operator="out"/>
<feColorMatrix type="matrix" values="0 0 0 0 0 0 0 0 0 0 0 0 0 0 0 0 0 0 0.6 0"/>
<feBlend mode="normal" in2="BackgroundImageFix" result="effect1_dropShadow_26_185"/>
<feBlend mode="normal" in="SourceGraphic" in2="effect1_dropShadow_26_185" result="shape"/>
</filter>
<filter id="filter2_d_26_185" x="5.50171" y="10.7764" width="222.281" height="255.724" filterUnits="userSpaceOnUse" color-interpolation-filters="sRGB">
<feFlood flood-opacity="0" result="BackgroundImageFix"/>
<feColorMatrix in="SourceAlpha" type="matrix" values="0 0 0 0 0 0 0 0 0 0 0 0 0 0 0 0 0 0 127 0" result="hardAlpha"/>
<feOffset dx="20" dy="30"/>
<feGaussianBlur stdDeviation="12.5"/>
<feComposite in2="hardAlpha" operator="out"/>
<feColorMatrix type="matrix" values="0 0 0 0 0 0 0 0 0 0 0 0 0 0 0 0 0 0 1 0"/>
<feBlend mode="normal" in2="BackgroundImageFix" result="effect1_dropShadow_26_185"/>
<feBlend mode="normal" in="SourceGraphic" in2="effect1_dropShadow_26_185" result="shape"/>
</filter>
<filter id="filter3_d_26_185" x="10.5017" y="10.7764" width="212.281" height="213.706" filterUnits="userSpaceOnUse" color-interpolation-filters="sRGB">
<feFlood flood-opacity="0" result="BackgroundImageFix"/>
<feColorMatrix in="SourceAlpha" type="matrix" values="0 0 0 0 0 0 0 0 0 0 0 0 0 0 0 0 0 0 127 0" result="hardAlpha"/>
<feOffset dx="20" dy="60"/>
<feGaussianBlur stdDeviation="10"/>
<feComposite in2="hardAlpha" operator="out"/>
<feColorMatrix type="matrix" values="0 0 0 0 0 0 0 0 0 0 0 0 0 0 0 0 0 0 0.4 0"/>
<feBlend mode="normal" in2="BackgroundImageFix" result="effect1_dropShadow_26_185"/>
<feBlend mode="normal" in="SourceGraphic" in2="effect1_dropShadow_26_185" result="shape"/>
</filter>
<linearGradient id="paint0_linear_26_185" x1="156.63" y1="22.8398" x2="156.63" y2="205.963" gradientUnits="userSpaceOnUse">
<stop offset="0.128125" stop-color="#D9D9D9"/>
<stop offset="0.411458" stop-color="#B4A7A7" stop-opacity="0.45"/>
<stop offset="0.640625" stop-color="#494242" stop-opacity="0"/>
<stop offset="0.869792" stop-color="#928C8C"/>
</linearGradient>
<linearGradient id="paint1_linear_26_185" x1="52.9838" y1="70.8503" x2="52.3994" y2="144.659" gradientUnits="userSpaceOnUse">
<stop offset="0.18287"/>
<stop offset="0.237238"/>
<stop offset="0.422739" stop-color="#D9D9D9"/>
<stop offset="0.620456" stop-color="#D9D9D9"/>
<stop offset="0.843205"/>
</linearGradient>
<linearGradient id="paint2_linear_26_185" x1="139.906" y1="71.4832" x2="139.319" y2="144.621" gradientUnits="userSpaceOnUse">
<stop offset="0.18287"/>
<stop offset="0.237238"/>
<stop offset="0.422739" stop-color="#D9D9D9"/>
<stop offset="0.620456" stop-color="#D9D9D9"/>
<stop offset="0.843205"/>
</linearGradient>
<linearGradient id="paint3_linear_26_185" x1="51.592" y1="81.362" x2="51.3703" y2="112.28" gradientUnits="userSpaceOnUse">
<stop offset="0.18287"/>
<stop offset="0.237238"/>
<stop offset="0.422739" stop-color="#D9D9D9"/>
<stop offset="0.620456" stop-color="#D9D9D9"/>
<stop offset="0.843205"/>
</linearGradient>
<linearGradient id="paint4_linear_26_185" x1="143.503" y1="81.9699" x2="143.287" y2="112.111" gradientUnits="userSpaceOnUse">
<stop offset="0.18287"/>
<stop offset="0.237238"/>
<stop offset="0.422739" stop-color="#D9D9D9"/>
<stop offset="0.620456" stop-color="#D9D9D9"/>
<stop offset="0.843205"/>
</linearGradient>
<linearGradient id="paint5_linear_26_185" x1="42.191" y1="141.793" x2="40.555" y2="215.155" gradientUnits="userSpaceOnUse">
<stop offset="0.18287"/>
<stop offset="0.237238"/>
<stop offset="0.422739" stop-color="#D9D9D9"/>
<stop offset="0.620456" stop-color="#D9D9D9"/>
<stop offset="0.843205"/>
</linearGradient>
<linearGradient id="paint6_linear_26_185" x1="152.051" y1="141.741" x2="150.227" y2="214.873" gradientUnits="userSpaceOnUse">
<stop offset="0.18287"/>
<stop offset="0.237238"/>
<stop offset="0.422739" stop-color="#D9D9D9"/>
<stop offset="0.620456" stop-color="#D9D9D9"/>
<stop offset="0.843205"/>
</linearGradient>
<linearGradient id="paint7_linear_26_185" x1="94.4348" y1="37.4666" x2="93.8298" y2="150.867" gradientUnits="userSpaceOnUse">
<stop offset="0.18287"/>
<stop offset="0.237238"/>
<stop offset="0.422739" stop-color="#D9D9D9"/>
<stop offset="0.620456" stop-color="#D9D9D9"/>
<stop offset="0.843205"/>
</linearGradient>
</defs>
</svg>
